 http://www.torrentday.com - Your Key To The Scene.

 
http://www.torrentday.com :  Clean RAR Scene Releases!


Enjoy =)

...................................NFO:....................................

.
                                                     
                                                   
                                                         
                                                          
                                                           
                                                          
                                                          
                                                          
                                                           
                                                         
                                                          
                                                        
                                                      
                                     
                                                 
                                                   
                                             
                                              
                                                     
                                                      
                                                      
                                                      
                                                    
                                                     
                                                   
                                                     
                                                     
                                                      
                                                     
                                                      
                                                    
                 ARTiCHOKE                        
                                                
                      
                                                        
                                                      
                                                      
                                               
                                          
                                                   
                                            
                                                    
                                                       
                                                        
                                                      
                                                
                                                        
                                                 
                                              
                                                  
                                                
                                                  
                                        

      
                                
      SPRiNTER proudly presents...     
                                
      
 
 Drop.Zone.1994.iNTERNAL.DVDRip.XviD-SPRiNTER  http://www.imdb.com/title/tt0109676/
 Subtitles: N/A

 Date: 2010.04

 Director: John Badham
 Plot: A team of skydiving crooks led by DEA-agent-turned-bad Busey specialize 
 in landing on police roofs and...
 Genre: Action | Thriller

 Cast
  Wesley Snipes ...  Pete Nessip
  Gary Busey ...  Ty Moncrief
  Yancy Butler ...  Jessie Crossman
  Michael Jeter ...  Earl Leedy
  Corin Nemec ...  Selkirk
  Kyle Secor ...  Swoop
  Luca Bercovici ...  Jagger
  Malcolm-Jamal Warner ...  Terry Nessip
  Rex Linn ...  Bobby
  Grace Zabriskie ...  Winona
  Robert LaSardo ...  Deputy Dog
  Sam Hennings ...  Torski
  Claire Stansfield	...  Kara
  Mickey Jones ...  Deuce
  Andy Romano ...  Tom McCracken

      
                 
      Release notes     
                 
      

 Enjoy!


      
           
     Greetings    
           
      


NTX aAF FiCO HNR CiNEFiLE AEN HUMANiSM MOViERUSH


      
           
      Details     
           
      


 Format                           : AVI
 Format/Info                      : Audio Video Interleave
 File size                        : 1.37 GiB
 Duration                         : 1h 41mn
 Overall bit rate                 : 1 927 Kbps
 Writing application              : VirtualDubMod 1.5.10.2 (build 2540/release)
 Writing library                  : VirtualDubMod build 2540/release
 
 Video
 ID                               : 0
 Format                           : MPEG-4 Visual
 Format profile                   : AdvancedSimple@L5
 Format settings, BVOP            : Yes
 Format settings, QPel            : No
 Format settings, GMC             : No warppoints
 Format settings, Matrix          : Default (H.263)
 Codec ID                         : XVID
 Codec ID/Hint                    : XviD
 Duration                         : 1h 41mn
 Bit rate                         : 1 470 Kbps
 Width                            : 640 pixels
 Height                           : 272 pixels
 Display aspect ratio             : 2.35:1
 Frame rate                       : 23.976 fps
 Resolution                       : 24 bits
 Colorimetry                      : 4:2:0
 Scan type                        : Progressive
 Bits/(Pixel*Frame)               : 0.352
 Stream size                      : 1.04 GiB (76%)
 Writing library                  : XviD 1.2.1 (UTC 2008-12-04)
 
 Audio
 ID                               : 1
 Format                           : AC-3
 Format/Info                      : Audio Coding 3
 Codec ID                         : 2000
 Duration                         : 1h 41mn
 Bit rate mode                    : Constant
 Bit rate                         : 448 Kbps
 Channel(s)                       : 6 channels
 Channel positions                : Front: L C R, Surround: L R, LFE
 Sampling rate                    : 48.0 KHz
 Video delay                      : 4ms
 Stream size                      : 325 MiB (23%)
 Alignment                        : Split accross interleaves
 Interleave, duration             : 42 ms (1.00 video frame)
 Interleave, preload duration     : 64 ms